<svg width="731" height="335" viewBox="0 0 731 335" fill="none" xmlns="http://www.w3.org/2000/svg">
<path d="M197.346 268.183H203.327C220.807 268.183 234.148 255.369 234.148 239.351C234.148 224.249 220.807 210.977 203.327 210.977H197.346V140.956C197.346 124.481 182.626 112.124 165.605 112.124C147.665 112.124 133.864 124.481 133.864 140.956V210.977H76.3625C103.043 149.652 124.664 101.598 151.345 40.2732C153.185 36.1544 153.185 32.9508 153.185 30.2049C153.185 14.1872 137.085 0.457644 121.444 0.457644C109.484 0.457644 97.5232 7.32242 92.9231 18.306L4.60015 221.045C1.84006 226.995 0 235.232 0 237.063C0 253.538 13.3404 268.183 32.6611 268.183H133.864V305.71C133.864 322.186 147.665 334.542 165.605 334.542C183.546 334.542 197.346 322.186 197.346 305.71V268.183Z" fill="url(#paint0_linear)"/>
<path d="M361.13 55.8333C391.491 55.8333 403.451 76.4276 403.451 105.717V234.775C403.451 260.861 388.731 278.709 361.13 278.709C333.529 278.709 318.808 260.861 318.808 234.775V105.717C318.808 76.4276 330.769 55.8333 361.13 55.8333ZM361.13 0C287.067 0 254.866 48.5109 254.866 108.921V234.775C254.866 290.608 292.588 335 361.13 335C429.672 335 467.393 290.608 467.393 234.775V108.921C467.393 48.5109 435.192 0 361.13 0Z" fill="url(#paint1_linear)"/>
<path d="M694.199 268.183H700.179C717.66 268.183 731 255.369 731 239.351C731 224.249 717.66 210.977 700.179 210.977H694.199V140.956C694.199 124.481 679.478 112.124 662.458 112.124C644.517 112.124 630.717 124.481 630.717 140.956V210.977H573.215C599.896 149.652 621.516 101.598 648.197 40.2732C650.037 36.1544 650.037 32.9508 650.037 30.2049C650.037 14.1872 633.937 0.457644 618.296 0.457644C606.336 0.457644 594.375 7.32242 589.775 18.306L501.452 221.045C498.692 226.995 496.852 235.232 496.852 237.063C496.852 253.538 510.193 268.183 529.513 268.183H630.717V305.71C630.717 322.186 644.517 334.542 662.458 334.542C680.398 334.542 694.199 322.186 694.199 305.71V268.183Z" fill="url(#paint2_linear)"/>
<defs>
<linearGradient id="paint0_linear" x1="0" y1="0" x2="0" y2="335" gradientUnits="userSpaceOnUse">
<stop stop-color="#FF9E80"/>
<stop offset="1" stop-color="#FF8A65"/>
</linearGradient>
<linearGradient id="paint1_linear" x1="0" y1="0" x2="0" y2="335" gradientUnits="userSpaceOnUse">
<stop stop-color="#FF9E80"/>
<stop offset="1" stop-color="#FF8A65"/>
</linearGradient>
<linearGradient id="paint2_linear" x1="0" y1="0" x2="0" y2="335" gradientUnits="userSpaceOnUse">
<stop stop-color="#FF9E80"/>
<stop offset="1" stop-color="#FF8A65"/>
</linearGradient>
</defs>
</svg>
