<svg width="65" height="65" viewBox="0 0 65 65" fill="none" xmlns="http://www.w3.org/2000/svg">
<path d="M50.1181 0H14.8819C6.66287 0 0 6.66287 0 14.8819V50.1181C0 58.3371 6.66287 65 14.8819 65H50.1181C58.3371 65 65 58.3371 65 50.1181V14.8819C65 6.66287 58.3371 0 50.1181 0Z" fill="url(#paint0_linear)"/>
<path d="M23.0414 24.8035C23.1609 24.519 23.3584 24.2741 23.611 24.097C23.8637 23.9199 24.1613 23.8178 24.4695 23.8025C24.6606 23.7854 24.8532 23.8076 25.0354 23.8678C25.2177 23.928 25.3856 24.0248 25.529 24.1523C25.6724 24.2799 25.7881 24.4354 25.8691 24.6094C25.9501 24.7833 25.9946 24.972 25.9999 25.1638C26.0012 25.3232 25.9802 25.4819 25.9377 25.6354L21.8001 37.7456C21.502 38.5954 21.0793 39.1916 20.0561 39.1916C19.0328 39.1916 18.6101 38.5776 18.3299 37.7456L14.1834 25.6354C14.143 25.4815 14.1221 25.323 14.1211 25.1638C14.1301 24.9729 14.1772 24.7856 14.2597 24.6131C14.3422 24.4406 14.4584 24.2864 14.6015 24.1595C14.7445 24.0326 14.9115 23.9357 15.0926 23.8744C15.2737 23.813 15.4653 23.7886 15.656 23.8025C15.9613 23.8163 16.256 23.9182 16.5047 24.0958C16.7533 24.2735 16.9453 24.5192 17.0574 24.8035L19.6779 33.0208C19.8608 33.705 19.9888 34.4028 20.0605 35.1074C20.1395 34.4022 20.2749 33.7044 20.4654 33.0208L23.0414 24.8035Z" fill="white"/>
<path d="M30.9207 37.8166C30.8809 38.1782 30.709 38.5123 30.4381 38.7549C30.1672 38.9976 29.8163 39.1318 29.4525 39.1318C29.0888 39.1318 28.7379 38.9976 28.467 38.7549C28.1961 38.5123 28.0242 38.1782 27.9844 37.8166V29.4436C28.0242 29.0821 28.1961 28.748 28.467 28.5053C28.7379 28.2626 29.0888 28.1284 29.4525 28.1284C29.8163 28.1284 30.1672 28.2626 30.4381 28.5053C30.709 28.748 30.8809 29.0821 30.9207 29.4436V37.8166Z" fill="white"/>
<path d="M41.6737 24.8034C41.7945 24.5163 41.9947 24.2696 42.2508 24.0923C42.5069 23.915 42.8083 23.8144 43.1196 23.8024C43.3111 23.7846 43.5042 23.8064 43.6869 23.8663C43.8696 23.9262 44.0382 24.0229 44.182 24.1505C44.3259 24.2781 44.4421 24.4339 44.5233 24.6081C44.6046 24.7824 44.6492 24.9715 44.6545 25.1638C44.6542 25.3233 44.6317 25.482 44.5878 25.6354L40.4413 37.7456C40.1432 38.5953 39.7161 39.1915 38.6928 39.1915C37.6696 39.1915 37.2469 38.5775 36.9711 37.7456L32.8201 25.6354C32.7776 25.4818 32.7566 25.3231 32.7579 25.1638C32.7663 24.973 32.8129 24.7858 32.8949 24.6133C32.9769 24.4409 33.0927 24.2866 33.2354 24.1597C33.3781 24.0327 33.5448 23.9357 33.7257 23.8743C33.9065 23.813 34.0978 23.7885 34.2883 23.8024C34.5941 23.8165 34.8893 23.9184 35.1386 24.096C35.3879 24.2735 35.5808 24.5191 35.6942 24.8034L38.3102 33.0207C38.4977 33.7046 38.6301 34.4023 38.7062 35.1073C38.7779 34.4027 38.9059 33.7049 39.0888 33.0207L41.6737 24.8034Z" fill="white"/>
<path d="M49.5574 37.8166C49.5176 38.1782 49.3457 38.5123 49.0748 38.7549C48.8039 38.9976 48.453 39.1318 48.0893 39.1318C47.7256 39.1318 47.3746 38.9976 47.1037 38.7549C46.8328 38.5123 46.661 38.1782 46.6211 37.8166V29.4436C46.661 29.0821 46.8328 28.748 47.1037 28.5053C47.3746 28.2626 47.7256 28.1284 48.0893 28.1284C48.453 28.1284 48.8039 28.2626 49.0748 28.5053C49.3457 28.748 49.5176 29.0821 49.5574 29.4436V37.8166Z" fill="white"/>
<path d="M29.4524 26.783C29.1644 26.7521 28.8914 26.6383 28.6667 26.4555C28.4419 26.2728 28.2749 26.0288 28.1858 25.7531C28.0968 25.4774 28.0896 25.1818 28.165 24.902C28.2404 24.6223 28.3952 24.3704 28.6108 24.1768C28.8263 23.9832 29.0933 23.8562 29.3795 23.8112C29.6657 23.7662 29.9588 23.805 30.2234 23.923C30.488 24.0411 30.7127 24.2332 30.8704 24.4763C31.0281 24.7194 31.112 25.0029 31.1119 25.2926C31.1029 25.5001 31.0525 25.7038 30.9638 25.8916C30.8751 26.0794 30.7498 26.2476 30.5952 26.3864C30.4407 26.5252 30.26 26.6318 30.0638 26.6999C29.8676 26.768 29.6597 26.7962 29.4524 26.783Z" fill="white"/>
<path d="M48.0891 26.783C47.8011 26.7521 47.5282 26.6383 47.3034 26.4555C47.0786 26.2728 46.9116 26.0288 46.8226 25.7531C46.7335 25.4774 46.7263 25.1818 46.8017 24.902C46.8771 24.6223 47.0319 24.3704 47.2475 24.1768C47.463 23.9832 47.7301 23.8562 48.0162 23.8112C48.3024 23.7662 48.5956 23.805 48.8601 23.923C49.1247 24.0411 49.3495 24.2332 49.5071 24.4763C49.6648 24.7194 49.7487 25.0029 49.7486 25.2926C49.7378 25.4995 49.6863 25.7023 49.597 25.8893C49.5077 26.0762 49.3824 26.2437 49.2282 26.3822C49.074 26.5207 48.8941 26.6273 48.6986 26.6961C48.5032 26.7649 48.296 26.7944 48.0891 26.783Z" fill="white"/>
<defs>
<linearGradient id="paint0_linear" x1="4.37337" y1="60.6266" x2="60.6266" y2="4.37337" gradientUnits="userSpaceOnUse">
<stop stop-color="#FF8A65"/>
<stop offset="1" stop-color="#FF9E80"/>
</linearGradient>
</defs>
</svg>
