<svg width="1109" height="864" viewBox="0 0 1109 864" fill="none" xmlns="http://www.w3.org/2000/svg">
<path d="M992.332 119.642C1016.83 -21.2394 783.227 51.6731 663.36 105.739C630.462 124.276 530.296 155.789 392.808 133.545C220.949 105.739 174.439 190.894 104.674 439.986C34.9092 689.077 314.536 819.416 726.885 789.873C1137.04 760.487 993.88 488.093 955.504 415.073L954.897 413.918C917.462 342.666 961.703 295.744 992.332 119.642Z" fill="#FFE5D2"/>
<path d="M497.138 44.3126C418.129 -22.8737 375.613 152.068 364.231 247.938C363.424 275.604 345.351 350.707 279.509 429.785C197.208 528.631 232.996 589.354 362.709 724.922C492.421 860.489 679.643 730.852 816.809 458.402C953.245 187.402 728.549 178.386 668.316 175.969L667.363 175.93C608.592 173.564 595.899 128.295 497.138 44.3126Z" fill="url(#paint0_linear)"/>
<g clip-path="url(#clip0)">
<path d="M903.921 511.468L903.703 521.786L912.148 527.824L902.185 530.801L899.014 540.63L893.075 532.152L882.665 532.2L888.958 523.981L885.694 514.183L895.528 517.571L903.921 511.468Z" stroke="#FF9371" stroke-width="2" stroke-linecap="round" stroke-linejoin="round"/>
</g>
<g clip-path="url(#clip1)">
<path d="M186.001 141.556L184.695 151.795L192.458 158.675L182.235 160.603L178.045 170.049L173.032 161.002L162.675 159.97L169.8 152.449L167.587 142.366L177.01 146.755L186.001 141.556Z" stroke="#6E5395" stroke-width="2" stroke-linecap="round" stroke-linejoin="round"/>
</g>
<path d="M226.27 393.413L229.405 403.254L239.358 406.282L230.887 412.275L231.067 422.593L222.697 416.456L212.855 419.816L216.152 410.029L209.887 401.789L220.298 401.866L226.27 393.413Z" stroke="#6E5395" stroke-width="2" stroke-linecap="round" stroke-linejoin="round"/>
<g clip-path="url(#clip2)">
<path d="M216.05 629.267L223.409 636.565L233.648 634.7L228.919 643.892L233.878 652.964L223.597 651.347L216.426 658.83L214.8 648.637L205.41 644.192L214.683 639.498L216.05 629.267Z" stroke="#FF9371" stroke-width="2" stroke-linecap="round" stroke-linejoin="round"/>
</g>
<g clip-path="url(#clip3)">
<path d="M55.0031 379.309L62.3618 386.608L72.6017 384.743L67.8727 393.934L72.8314 403.006L62.5502 401.389L55.3798 408.872L53.7533 398.679L44.3629 394.234L53.6361 389.54L55.0031 379.309Z" stroke="#FF9371" stroke-width="2" stroke-linecap="round" stroke-linejoin="round"/>
</g>
<path d="M1055.29 667.816L1057.12 677.977L1066.59 682.258L1057.41 687.112L1056.24 697.366L1048.74 690.205L1038.54 692.273L1043.09 682.992L1037.95 674.017L1048.27 675.43L1055.29 667.816Z" stroke="#FF9371" stroke-width="2" stroke-linecap="round" stroke-linejoin="round"/>
<path d="M178.725 737.95L181.346 747.937L191.13 751.468L182.36 757.022L182.006 767.335L173.965 760.78L163.961 763.636L167.761 754.028L161.931 745.482L172.324 746.088L178.725 737.95Z" stroke="#6E5395" stroke-width="2" stroke-linecap="round" stroke-linejoin="round"/>
<g clip-path="url(#clip4)">
<path d="M785.921 701.738L808.198 693.281C809.729 692.7 811.462 693.467 812.048 694.985L818.445 711.553C819.031 713.071 818.258 714.79 816.726 715.371L794.45 723.828C792.918 724.41 791.185 723.643 790.599 722.124L784.203 705.557C783.616 704.038 784.39 702.32 785.921 701.738Z" stroke="#6E5395" stroke-width="2" stroke-linecap="round" stroke-linejoin="round"/>
<path d="M812.05 694.988L801.858 709.937L784.204 705.559" stroke="#6E5395" stroke-width="2" stroke-linecap="round" stroke-linejoin="round"/>
</g>
<path d="M878.744 60.4308L882.865 69.908L893.075 71.9247L885.257 78.7343L886.486 88.9816L877.534 83.7133L868.084 88.0414L870.369 77.9737L863.298 70.4034L873.663 69.4379L878.744 60.4308Z" stroke="#FF9371" stroke-width="2" stroke-linecap="round" stroke-linejoin="round"/>
<g clip-path="url(#clip5)">
<path d="M911.54 402.245L934.392 395.463C935.963 394.997 937.633 395.89 938.103 397.448L943.233 414.443C943.703 416.001 942.802 417.657 941.231 418.123L918.379 424.905C916.808 425.371 915.138 424.478 914.668 422.92L909.538 405.925C909.068 404.367 909.969 402.711 911.54 402.245Z" stroke="#FF9371" stroke-width="2" stroke-linecap="round" stroke-linejoin="round"/>
<path d="M938.105 397.45L926.814 411.603L909.54 405.927" stroke="#FF9371" stroke-width="2" stroke-linecap="round" stroke-linejoin="round"/>
</g>
<path d="M872.612 602.66H870.064V605.166H868.888V602.66H866.34V601.554H868.888V599.034H870.064V601.554H872.612V602.66Z" fill="#6E5395"/>
<path d="M877.015 597.2V607H875.629V598.418H873.417V597.2H877.015Z" fill="#6E5395"/>
<path d="M883.162 607.112C882.388 607.112 881.697 606.916 881.09 606.524C880.493 606.123 880.022 605.544 879.676 604.788C879.331 604.032 879.158 603.136 879.158 602.1C879.158 601.064 879.331 600.168 879.676 599.412C880.022 598.656 880.493 598.082 881.09 597.69C881.697 597.289 882.388 597.088 883.162 597.088C883.928 597.088 884.609 597.289 885.206 597.69C885.813 598.082 886.289 598.656 886.634 599.412C886.98 600.168 887.152 601.064 887.152 602.1C887.152 603.136 886.98 604.032 886.634 604.788C886.289 605.544 885.813 606.123 885.206 606.524C884.609 606.916 883.928 607.112 883.162 607.112ZM883.162 605.866C883.946 605.866 884.572 605.544 885.038 604.9C885.514 604.256 885.752 603.323 885.752 602.1C885.752 600.877 885.514 599.944 885.038 599.3C884.572 598.656 883.946 598.334 883.162 598.334C882.369 598.334 881.734 598.656 881.258 599.3C880.792 599.944 880.558 600.877 880.558 602.1C880.558 603.323 880.792 604.256 881.258 604.9C881.734 605.544 882.369 605.866 883.162 605.866Z" fill="#6E5395"/>
<path d="M892.5 607.112C891.726 607.112 891.035 606.916 890.428 606.524C889.831 606.123 889.36 605.544 889.014 604.788C888.669 604.032 888.496 603.136 888.496 602.1C888.496 601.064 888.669 600.168 889.014 599.412C889.36 598.656 889.831 598.082 890.428 597.69C891.035 597.289 891.726 597.088 892.5 597.088C893.266 597.088 893.947 597.289 894.544 597.69C895.151 598.082 895.627 598.656 895.972 599.412C896.318 600.168 896.49 601.064 896.49 602.1C896.49 603.136 896.318 604.032 895.972 604.788C895.627 605.544 895.151 606.123 894.544 606.524C893.947 606.916 893.266 607.112 892.5 607.112ZM892.5 605.866C893.284 605.866 893.91 605.544 894.376 604.9C894.852 604.256 895.09 603.323 895.09 602.1C895.09 600.877 894.852 599.944 894.376 599.3C893.91 598.656 893.284 598.334 892.5 598.334C891.707 598.334 891.072 598.656 890.596 599.3C890.13 599.944 889.896 600.877 889.896 602.1C889.896 603.323 890.13 604.256 890.596 604.9C891.072 605.544 891.707 605.866 892.5 605.866Z" fill="#6E5395"/>
<path d="M901.838 607.112C901.063 607.112 900.373 606.916 899.766 606.524C899.169 606.123 898.697 605.544 898.352 604.788C898.007 604.032 897.834 603.136 897.834 602.1C897.834 601.064 898.007 600.168 898.352 599.412C898.697 598.656 899.169 598.082 899.766 597.69C900.373 597.289 901.063 597.088 901.838 597.088C902.603 597.088 903.285 597.289 903.882 597.69C904.489 598.082 904.965 598.656 905.31 599.412C905.655 600.168 905.828 601.064 905.828 602.1C905.828 603.136 905.655 604.032 905.31 604.788C904.965 605.544 904.489 606.123 903.882 606.524C903.285 606.916 902.603 607.112 901.838 607.112ZM901.838 605.866C902.622 605.866 903.247 605.544 903.714 604.9C904.19 604.256 904.428 603.323 904.428 602.1C904.428 600.877 904.19 599.944 903.714 599.3C903.247 598.656 902.622 598.334 901.838 598.334C901.045 598.334 900.41 598.656 899.934 599.3C899.467 599.944 899.234 600.877 899.234 602.1C899.234 603.323 899.467 604.256 899.934 604.9C900.41 605.544 901.045 605.866 901.838 605.866Z" fill="#6E5395"/>
<path d="M909.762 603.738V604.564H912.87V605.362H909.762V607H908.348V605.362H906.92V604.564H908.348V597.2H912.198C913.477 597.2 914.475 597.485 915.194 598.054C915.913 598.614 916.272 599.417 916.272 600.462C916.272 601.517 915.913 602.329 915.194 602.898C914.475 603.458 913.477 603.738 912.198 603.738H909.762ZM914.858 600.476C914.858 599.813 914.629 599.305 914.172 598.95C913.715 598.595 913.057 598.418 912.198 598.418H909.762V602.576H912.198C913.047 602.576 913.701 602.394 914.158 602.03C914.625 601.657 914.858 601.139 914.858 600.476Z" fill="#6E5395"/>
<path d="M137.904 515.32H132.808V520.332H130.456V515.32H125.36V513.108H130.456V508.068H132.808V513.108H137.904V515.32Z" fill="#6E5395"/>
<path d="M146.709 504.4V524H143.937V506.836H139.513V504.4H146.709Z" fill="#6E5395"/>
<path d="M164.772 521.564V524H150.688V522.096L158.668 514.396C159.639 513.463 160.292 512.66 160.628 511.988C160.964 511.297 161.132 510.607 161.132 509.916C161.132 508.889 160.768 508.096 160.04 507.536C159.331 506.957 158.304 506.668 156.96 506.668C154.795 506.668 153.124 507.377 151.948 508.796L150.044 507.144C150.81 506.211 151.808 505.483 153.04 504.96C154.291 504.437 155.682 504.176 157.212 504.176C159.266 504.176 160.899 504.671 162.112 505.66C163.326 506.631 163.932 507.956 163.932 509.636C163.932 510.681 163.708 511.671 163.26 512.604C162.812 513.537 161.963 514.601 160.712 515.796L154.72 521.564H164.772Z" fill="#6E5395"/>
<path d="M175 524.224C173.451 524.224 172.07 523.832 170.856 523.048C169.662 522.245 168.719 521.088 168.028 519.576C167.338 518.064 166.992 516.272 166.992 514.2C166.992 512.128 167.338 510.336 168.028 508.824C168.719 507.312 169.662 506.164 170.856 505.38C172.07 504.577 173.451 504.176 175 504.176C176.531 504.176 177.894 504.577 179.088 505.38C180.302 506.164 181.254 507.312 181.944 508.824C182.635 510.336 182.98 512.128 182.98 514.2C182.98 516.272 182.635 518.064 181.944 519.576C181.254 521.088 180.302 522.245 179.088 523.048C177.894 523.832 176.531 524.224 175 524.224ZM175 521.732C176.568 521.732 177.819 521.088 178.752 519.8C179.704 518.512 180.18 516.645 180.18 514.2C180.18 511.755 179.704 509.888 178.752 508.6C177.819 507.312 176.568 506.668 175 506.668C173.414 506.668 172.144 507.312 171.192 508.6C170.259 509.888 169.792 511.755 169.792 514.2C169.792 516.645 170.259 518.512 171.192 519.8C172.144 521.088 173.414 521.732 175 521.732Z" fill="#6E5395"/>
<path d="M193.676 524.224C192.127 524.224 190.746 523.832 189.532 523.048C188.338 522.245 187.395 521.088 186.704 519.576C186.014 518.064 185.668 516.272 185.668 514.2C185.668 512.128 186.014 510.336 186.704 508.824C187.395 507.312 188.338 506.164 189.532 505.38C190.746 504.577 192.127 504.176 193.676 504.176C195.207 504.176 196.57 504.577 197.764 505.38C198.978 506.164 199.93 507.312 200.62 508.824C201.311 510.336 201.656 512.128 201.656 514.2C201.656 516.272 201.311 518.064 200.62 519.576C199.93 521.088 198.978 522.245 197.764 523.048C196.57 523.832 195.207 524.224 193.676 524.224ZM193.676 521.732C195.244 521.732 196.495 521.088 197.428 519.8C198.38 518.512 198.856 516.645 198.856 514.2C198.856 511.755 198.38 509.888 197.428 508.6C196.495 507.312 195.244 506.668 193.676 506.668C192.09 506.668 190.82 507.312 189.868 508.6C188.935 509.888 188.468 511.755 188.468 514.2C188.468 516.645 188.935 518.512 189.868 519.8C190.82 521.088 192.09 521.732 193.676 521.732Z" fill="#6E5395"/>
<path d="M209.524 517.476V519.128H215.74V520.724H209.524V524H206.696V520.724H203.84V519.128H206.696V504.4H214.396C216.953 504.4 218.951 504.969 220.388 506.108C221.825 507.228 222.544 508.833 222.544 510.924C222.544 513.033 221.825 514.657 220.388 515.796C218.951 516.916 216.953 517.476 214.396 517.476H209.524ZM219.716 510.952C219.716 509.627 219.259 508.609 218.344 507.9C217.429 507.191 216.113 506.836 214.396 506.836H209.524V515.152H214.396C216.095 515.152 217.401 514.788 218.316 514.06C219.249 513.313 219.716 512.277 219.716 510.952Z" fill="#6E5395"/>
<path d="M183.355 246.08H177.531V251.808H174.843V246.08H169.019V243.552H174.843V237.792H177.531V243.552H183.355V246.08Z" fill="#6E5395"/>
<path d="M202.374 253.216V256H186.278V253.824L195.398 245.024C196.507 243.957 197.254 243.04 197.638 242.272C198.022 241.483 198.214 240.693 198.214 239.904C198.214 238.731 197.798 237.824 196.966 237.184C196.155 236.523 194.982 236.192 193.446 236.192C190.971 236.192 189.062 237.003 187.718 238.624L185.542 236.736C186.416 235.669 187.558 234.837 188.966 234.24C190.395 233.643 191.984 233.344 193.734 233.344C196.08 233.344 197.947 233.909 199.334 235.04C200.72 236.149 201.414 237.664 201.414 239.584C201.414 240.779 201.158 241.909 200.646 242.976C200.134 244.043 199.163 245.259 197.734 246.624L190.886 253.216H202.374Z" fill="#6E5395"/>
<path d="M211.949 233.6V256H208.781V236.384H203.725V233.6H211.949Z" fill="#6E5395"/>
<path d="M226.001 256.256C224.23 256.256 222.651 255.808 221.265 254.912C219.899 253.995 218.822 252.672 218.033 250.944C217.243 249.216 216.849 247.168 216.849 244.8C216.849 242.432 217.243 240.384 218.033 238.656C218.822 236.928 219.899 235.616 221.265 234.72C222.651 233.803 224.23 233.344 226.001 233.344C227.75 233.344 229.307 233.803 230.673 234.72C232.059 235.616 233.147 236.928 233.937 238.656C234.726 240.384 235.121 242.432 235.121 244.8C235.121 247.168 234.726 249.216 233.937 250.944C233.147 252.672 232.059 253.995 230.673 254.912C229.307 255.808 227.75 256.256 226.001 256.256ZM226.001 253.408C227.793 253.408 229.222 252.672 230.289 251.2C231.377 249.728 231.921 247.595 231.921 244.8C231.921 242.005 231.377 239.872 230.289 238.4C229.222 236.928 227.793 236.192 226.001 236.192C224.187 236.192 222.737 236.928 221.649 238.4C220.582 239.872 220.049 242.005 220.049 244.8C220.049 247.595 220.582 249.728 221.649 251.2C222.737 252.672 224.187 253.408 226.001 253.408Z" fill="#6E5395"/>
<path d="M247.344 256.256C245.574 256.256 243.995 255.808 242.608 254.912C241.243 253.995 240.166 252.672 239.376 250.944C238.587 249.216 238.192 247.168 238.192 244.8C238.192 242.432 238.587 240.384 239.376 238.656C240.166 236.928 241.243 235.616 242.608 234.72C243.995 233.803 245.574 233.344 247.344 233.344C249.094 233.344 250.651 233.803 252.016 234.72C253.403 235.616 254.491 236.928 255.28 238.656C256.07 240.384 256.464 242.432 256.464 244.8C256.464 247.168 256.07 249.216 255.28 250.944C254.491 252.672 253.403 253.995 252.016 254.912C250.651 255.808 249.094 256.256 247.344 256.256ZM247.344 253.408C249.136 253.408 250.566 252.672 251.632 251.2C252.72 249.728 253.264 247.595 253.264 244.8C253.264 242.005 252.72 239.872 251.632 238.4C250.566 236.928 249.136 236.192 247.344 236.192C245.531 236.192 244.08 236.928 242.992 238.4C241.926 239.872 241.392 242.005 241.392 244.8C241.392 247.595 241.926 249.728 242.992 251.2C244.08 252.672 245.531 253.408 247.344 253.408Z" fill="#6E5395"/>
<path d="M265.456 248.544V250.432H272.56V252.256H265.456V256H262.224V252.256H258.96V250.432H262.224V233.6H271.024C273.947 233.6 276.229 234.251 277.872 235.552C279.515 236.832 280.336 238.667 280.336 241.056C280.336 243.467 279.515 245.323 277.872 246.624C276.229 247.904 273.947 248.544 271.024 248.544H265.456ZM277.104 241.088C277.104 239.573 276.581 238.411 275.536 237.6C274.491 236.789 272.987 236.384 271.024 236.384H265.456V245.888H271.024C272.965 245.888 274.459 245.472 275.504 244.64C276.571 243.787 277.104 242.603 277.104 241.088Z" fill="#6E5395"/>
<path d="M891.235 215.84H884.683V222.284H881.659V215.84H875.107V212.996H881.659V206.516H884.683V212.996H891.235V215.84Z" fill="#6E5395"/>
<path d="M912.631 223.868V227H894.523V224.552L904.783 214.652C906.031 213.452 906.871 212.42 907.303 211.556C907.735 210.668 907.951 209.78 907.951 208.892C907.951 207.572 907.483 206.552 906.547 205.832C905.635 205.088 904.315 204.716 902.587 204.716C899.803 204.716 897.655 205.628 896.143 207.452L893.695 205.328C894.679 204.128 895.963 203.192 897.547 202.52C899.155 201.848 900.943 201.512 902.911 201.512C905.551 201.512 907.651 202.148 909.211 203.42C910.771 204.668 911.551 206.372 911.551 208.532C911.551 209.876 911.263 211.148 910.687 212.348C910.111 213.548 909.019 214.916 907.411 216.452L899.707 223.868H912.631Z" fill="#6E5395"/>
<path d="M926.358 211.7C928.014 211.7 929.49 212.012 930.786 212.636C932.106 213.26 933.138 214.16 933.882 215.336C934.626 216.488 934.998 217.82 934.998 219.332C934.998 220.916 934.602 222.308 933.81 223.508C933.042 224.708 931.974 225.644 930.606 226.316C929.262 226.964 927.75 227.288 926.07 227.288C922.686 227.288 920.07 226.196 918.222 224.012C916.398 221.828 915.486 218.732 915.486 214.724C915.486 211.916 915.978 209.528 916.962 207.56C917.97 205.568 919.362 204.068 921.138 203.06C922.938 202.028 925.026 201.512 927.402 201.512C928.626 201.512 929.778 201.644 930.858 201.908C931.938 202.148 932.874 202.508 933.666 202.988L932.298 205.796C931.098 205.004 929.49 204.608 927.474 204.608C924.858 204.608 922.806 205.424 921.318 207.056C919.83 208.664 919.086 211.016 919.086 214.112C919.086 214.496 919.098 214.796 919.122 215.012C919.842 213.932 920.826 213.116 922.074 212.564C923.346 211.988 924.774 211.7 926.358 211.7ZM925.926 224.372C927.582 224.372 928.926 223.928 929.958 223.04C930.99 222.152 931.506 220.964 931.506 219.476C931.506 217.988 930.978 216.812 929.922 215.948C928.89 215.06 927.498 214.616 925.746 214.616C924.618 214.616 923.61 214.832 922.722 215.264C921.858 215.696 921.174 216.284 920.67 217.028C920.19 217.772 919.95 218.6 919.95 219.512C919.95 220.4 920.178 221.216 920.634 221.96C921.114 222.68 921.798 223.268 922.686 223.724C923.598 224.156 924.678 224.372 925.926 224.372Z" fill="#6E5395"/>
<path d="M948.001 227.288C946.009 227.288 944.233 226.784 942.673 225.776C941.137 224.744 939.925 223.256 939.037 221.312C938.149 219.368 937.705 217.064 937.705 214.4C937.705 211.736 938.149 209.432 939.037 207.488C939.925 205.544 941.137 204.068 942.673 203.06C944.233 202.028 946.009 201.512 948.001 201.512C949.969 201.512 951.721 202.028 953.257 203.06C954.817 204.068 956.041 205.544 956.929 207.488C957.817 209.432 958.261 211.736 958.261 214.4C958.261 217.064 957.817 219.368 956.929 221.312C956.041 223.256 954.817 224.744 953.257 225.776C951.721 226.784 949.969 227.288 948.001 227.288ZM948.001 224.084C950.017 224.084 951.625 223.256 952.825 221.6C954.049 219.944 954.661 217.544 954.661 214.4C954.661 211.256 954.049 208.856 952.825 207.2C951.625 205.544 950.017 204.716 948.001 204.716C945.961 204.716 944.329 205.544 943.105 207.2C941.905 208.856 941.305 211.256 941.305 214.4C941.305 217.544 941.905 219.944 943.105 221.6C944.329 223.256 945.961 224.084 948.001 224.084Z" fill="#6E5395"/>
<path d="M972.012 227.288C970.02 227.288 968.244 226.784 966.684 225.776C965.148 224.744 963.936 223.256 963.048 221.312C962.16 219.368 961.716 217.064 961.716 214.4C961.716 211.736 962.16 209.432 963.048 207.488C963.936 205.544 965.148 204.068 966.684 203.06C968.244 202.028 970.02 201.512 972.012 201.512C973.98 201.512 975.732 202.028 977.268 203.06C978.828 204.068 980.052 205.544 980.94 207.488C981.828 209.432 982.272 211.736 982.272 214.4C982.272 217.064 981.828 219.368 980.94 221.312C980.052 223.256 978.828 224.744 977.268 225.776C975.732 226.784 973.98 227.288 972.012 227.288ZM972.012 224.084C974.028 224.084 975.636 223.256 976.836 221.6C978.06 219.944 978.672 217.544 978.672 214.4C978.672 211.256 978.06 208.856 976.836 207.2C975.636 205.544 974.028 204.716 972.012 204.716C969.972 204.716 968.34 205.544 967.116 207.2C965.916 208.856 965.316 211.256 965.316 214.4C965.316 217.544 965.916 219.944 967.116 221.6C968.34 223.256 969.972 224.084 972.012 224.084Z" fill="#6E5395"/>
<path d="M992.388 218.612V220.736H1000.38V222.788H992.388V227H988.752V222.788H985.08V220.736H988.752V201.8H998.652C1001.94 201.8 1004.51 202.532 1006.36 203.996C1008.2 205.436 1009.13 207.5 1009.13 210.188C1009.13 212.9 1008.2 214.988 1006.36 216.452C1004.51 217.892 1001.94 218.612 998.652 218.612H992.388ZM1005.49 210.224C1005.49 208.52 1004.9 207.212 1003.73 206.3C1002.55 205.388 1000.86 204.932 998.652 204.932H992.388V215.624H998.652C1000.84 215.624 1002.52 215.156 1003.69 214.22C1004.89 213.26 1005.49 211.928 1005.49 210.224Z" fill="#6E5395"/>
<g clip-path="url(#clip6)">
<path d="M1036.24 304.174L1032.72 314.899L1039.62 323.867L1028.25 323.852L1021.79 333.137L1018.29 322.404L1007.38 319.184L1016.59 312.563L1016.31 301.289L1025.51 307.922L1036.24 304.174Z" stroke="#FF9371" stroke-width="2" stroke-linecap="round" stroke-linejoin="round"/>
</g>
<defs>
<linearGradient id="paint0_linear" x1="106.843" y1="584.346" x2="578.392" y2="864.935" gradientUnits="userSpaceOnUse">
<stop stop-color="#FF9E80"/>
<stop offset="1" stop-color="#FF8A65"/>
</linearGradient>
<clipPath id="clip0">
<rect width="41.6692" height="41.4681" fill="white" transform="matrix(0.888799 0.458298 -0.464416 0.885617 888.155 496.673)"/>
</clipPath>
<clipPath id="clip1">
<rect width="41.6373" height="41.5002" fill="white" transform="matrix(0.836242 0.548361 -0.554826 0.831967 171.881 125.207)"/>
</clipPath>
<clipPath id="clip2">
<rect width="41.7076" height="41.4296" fill="white" transform="matrix(0.947892 -0.318592 0.323445 0.946247 194.369 630.31)"/>
</clipPath>
<clipPath id="clip3">
<rect width="41.7076" height="41.4296" fill="white" transform="matrix(0.947892 -0.318593 0.323444 0.946247 33.322 380.353)"/>
</clipPath>
<clipPath id="clip4">
<rect width="41.6989" height="41.4383" fill="white" transform="matrix(0.934895 -0.354924 0.360178 0.932884 774.37 696.627)"/>
</clipPath>
<clipPath id="clip5">
<rect width="41.7149" height="41.4222" fill="white" transform="matrix(0.958674 -0.284508 0.288943 0.957346 900.406 396.292)"/>
</clipPath>
<clipPath id="clip6">
<rect width="45.4376" height="45.4285" fill="white" transform="matrix(0.718372 0.695659 -0.701683 0.71249 1024.48 283.746)"/>
</clipPath>
</defs>
</svg>
