<svg width="806" height="535" viewBox="0 0 806 535" fill="none" xmlns="http://www.w3.org/2000/svg">
<path d="M0.665808 284.31C-2.83861 206.731 229.212 164.113 281.19 136.108C332.868 108.266 345.813 66.8202 454.459 65.7672C563.106 64.7142 479.546 71.5186 569.945 15.8523C660.343 -39.814 745.626 68.1461 788.841 125.467C832.057 182.788 796.559 230.485 638.675 329.456C454.459 444.933 495.178 433.751 379.926 493.586C264.673 553.421 167.96 541.653 117.712 493.586C59.3696 437.777 83.2425 387.696 6.27851 296.765C3.28116 293.224 0.876128 288.965 0.665808 284.31Z" fill="url(#paint0_linear)"/>
<defs>
<linearGradient id="paint0_linear" x1="490.018" y1="423.958" x2="383.667" y2="32.8814" gradientUnits="userSpaceOnUse">
<stop stop-color="#1AC9FC"/>
<stop offset="1" stop-color="#1D73F1"/>
</linearGradient>
</defs>
</svg>
